<svg xmlns="http://www.w3.org/2000/svg" xmlns:xlink="http://www.w3.org/1999/xlink" height="800px" width="800px" version="1.1" id="Layer_1" viewBox="0 0 512 512" xml:space="preserve">
<circle style="fill:#490A3D;" cx="256" cy="256" r="256"/>
<circle style="fill:#490A3D;" cx="256" cy="256" r="188.484"/>
<circle style="fill:#BD1550;" cx="256" cy="256" r="120.967"/>
<path style="fill:#F8CA00;" d="M312.264,247.56h-35.888l25.377-25.377c3.296-3.297,3.296-8.64,0-11.936  c-3.296-3.295-8.64-3.295-11.935,0l-25.378,25.377l-16.879,40.751v35.888c0,4.662,3.779,8.44,8.44,8.44  c4.661,0,8.44-3.778,8.44-8.44v-35.888l25.377,25.377c1.647,1.647,3.808,2.471,5.967,2.471c2.159,0,4.32-0.824,5.967-2.471  c3.296-3.297,3.296-8.64,0-11.936l-25.376-25.377h35.888c4.661,0,8.44-3.778,8.44-8.44  C320.703,251.338,316.925,247.56,312.264,247.56z"/>
<path style="fill:#F8CA00;" d="M256,191.297c-4.661,0-8.44,3.778-8.44,8.44v35.888l-25.377-25.377c-3.296-3.295-8.64-3.295-11.935,0  c-3.296,3.297-3.296,8.64,0,11.936l25.376,25.377h-35.888c-4.661,0-8.44,3.778-8.44,8.44c0,4.662,3.779,8.44,8.44,8.44h35.888  l-25.377,25.377c-3.296,3.297-3.296,8.64,0,11.936c1.647,1.647,3.808,2.471,5.967,2.471s4.32-0.824,5.967-2.471l25.378-25.377  l16.879-40.751v-35.888C264.44,195.074,260.661,191.297,256,191.297z"/>
<path style="fill:#E97F02;" d="M256,210.989L244.747,256L256,301.011c24.858,0,45.011-20.153,45.011-45.011  S280.858,210.989,256,210.989z"/>
<path style="fill:#F8CA00;" d="M210.989,256c0,24.858,20.153,45.011,45.011,45.011v-90.022  C231.142,210.989,210.989,231.142,210.989,256z"/>
<path style="fill:#E97F02;" d="M256,112.527l-11.253,22.505L256,157.538c12.43,0,22.505-10.076,22.505-22.505  S268.43,112.527,256,112.527z"/>
<path style="fill:#E97F02;" d="M67.516,227.868L56.264,256l11.253,28.132c15.537,0,28.132-12.595,28.132-28.132  S83.053,227.868,67.516,227.868z"/>
<path style="fill:#E97F02;" d="M74.98,41.222L63.728,74.98l11.253,33.758c18.645,0,33.758-15.115,33.758-33.758  S93.625,41.222,74.98,41.222z"/>
<path style="fill:#8A9B0F;" d="M41.222,74.98c0,18.644,15.114,33.758,33.758,33.758V41.222  C56.337,41.222,41.222,56.337,41.222,74.98z"/>
<path style="fill:#E97F02;" d="M233.495,135.033c0,12.43,10.076,22.505,22.505,22.505v-45.011  C243.57,112.527,233.495,122.603,233.495,135.033z"/>
<path style="fill:#E97F02;" d="M39.385,256c0,15.537,12.595,28.132,28.132,28.132v-56.264C51.98,227.868,39.385,240.463,39.385,256z  "/>
<circle style="fill:#F8CA00;" cx="478.242" cy="256" r="8.44"/>
<g>
	<circle style="fill:#E97F02;" cx="55.089" cy="456.907" r="8.44"/>
	<circle style="fill:#E97F02;" cx="456.907" cy="55.089" r="8.44"/>
</g>
<g>
	<circle style="fill:#F8CA00;" cx="413.145" cy="413.145" r="8.44"/>
	<circle style="fill:#F8CA00;" cx="98.855" cy="413.145" r="8.44"/>
	<circle style="fill:#F8CA00;" cx="398.944" cy="196.788" r="8.44"/>
</g>
</svg>