<svg width="485" height="122" viewBox="0 0 485 122" fill="none" xmlns="http://www.w3.org/2000/svg">
<path d="M174.986 22.2083C174.825 20.708 174.15 19.5397 172.959 18.7036C171.779 17.8675 170.244 17.4495 168.354 17.4495C167.026 17.4495 165.886 17.6499 164.935 18.0508C163.985 18.4516 163.258 18.9957 162.754 19.6829C162.25 20.3701 161.992 21.1546 161.98 22.0365C161.98 22.7696 162.147 23.4052 162.479 23.9435C162.822 24.4818 163.286 24.94 163.87 25.3179C164.454 25.6844 165.101 25.9937 165.812 26.2457C166.522 26.4976 167.238 26.7095 167.959 26.8813L171.258 27.706C172.586 28.0152 173.863 28.4333 175.089 28.9601C176.326 29.487 177.431 30.1513 178.405 30.953C179.39 31.7547 180.168 32.7225 180.741 33.8564C181.314 34.9903 181.6 36.3189 181.6 37.8422C181.6 39.9038 181.073 41.7192 180.02 43.2883C178.966 44.8459 177.443 46.0657 175.45 46.9476C173.468 47.8181 171.069 48.2533 168.251 48.2533C165.514 48.2533 163.137 47.8295 161.121 46.982C159.117 46.1344 157.548 44.8975 156.414 43.2711C155.292 41.6447 154.685 39.6633 154.593 37.3268H160.864C160.955 38.5523 161.333 39.5717 161.998 40.3848C162.662 41.198 163.527 41.8051 164.592 42.2059C165.668 42.6068 166.871 42.8072 168.2 42.8072C169.585 42.8072 170.8 42.6011 171.842 42.1888C172.896 41.765 173.72 41.1809 174.316 40.4364C174.911 39.6805 175.215 38.7986 175.226 37.7907C175.215 36.8744 174.946 36.1185 174.419 35.5229C173.892 34.9159 173.153 34.4119 172.203 34.011C171.263 33.5987 170.164 33.2322 168.904 32.9115L164.901 31.8807C162.003 31.1362 159.713 30.0081 158.029 28.4962C156.357 26.9729 155.521 24.9514 155.521 22.4317C155.521 20.3586 156.082 18.5433 157.204 16.9856C158.338 15.4279 159.879 14.2196 161.826 13.3606C163.773 12.4902 165.978 12.0549 168.44 12.0549C170.937 12.0549 173.125 12.4902 175.003 13.3606C176.893 14.2196 178.376 15.4165 179.453 16.9512C180.529 18.4745 181.085 20.2269 181.119 22.2083H174.986ZM187.282 47.7207V12.536H200.477C203.18 12.536 205.447 13.0399 207.28 14.0478C209.124 15.0557 210.516 16.4416 211.455 18.2054C212.405 19.9578 212.881 21.9506 212.881 24.1841C212.881 26.4404 212.405 28.4447 211.455 30.1971C210.504 31.9494 209.101 33.3296 207.246 34.3375C205.39 35.3339 203.105 35.8321 200.391 35.8321H191.646V30.5922H199.532C201.112 30.5922 202.407 30.3173 203.414 29.7676C204.422 29.2178 205.167 28.4619 205.648 27.4998C206.14 26.5377 206.387 25.4325 206.387 24.1841C206.387 22.9356 206.14 21.8361 205.648 20.8855C205.167 19.9349 204.417 19.1961 203.397 18.6693C202.389 18.1309 201.089 17.8618 199.497 17.8618H193.656V47.7207H187.282ZM219.014 47.7207H212.211L224.597 12.536H232.466L244.87 47.7207H238.067L228.669 19.7516H228.394L219.014 47.7207ZM219.237 33.9251H237.792V39.0448H219.237V33.9251ZM277.967 24.4074H271.542C271.359 23.3537 271.021 22.4202 270.528 21.607C270.036 20.7824 269.423 20.0837 268.69 19.5111C267.957 18.9384 267.121 18.5089 266.182 18.2226C265.254 17.9248 264.252 17.7759 263.175 17.7759C261.263 17.7759 259.567 18.2569 258.09 19.219C256.613 20.1696 255.456 21.567 254.62 23.4109C253.784 25.2435 253.365 27.4826 253.365 30.1284C253.365 32.8199 253.784 35.0877 254.62 36.9317C255.467 38.7642 256.624 40.1501 258.09 41.0892C259.567 42.017 261.257 42.4808 263.158 42.4808C264.212 42.4808 265.197 42.3434 266.113 42.0685C267.041 41.7822 267.871 41.3641 268.604 40.8143C269.349 40.2646 269.973 39.5888 270.477 38.7871C270.992 37.9854 271.347 37.0691 271.542 36.0383L277.967 36.0727C277.727 37.7448 277.206 39.314 276.404 40.78C275.614 42.246 274.577 43.5403 273.294 44.6627C272.012 45.7737 270.511 46.6441 268.793 47.2741C267.075 47.8925 265.168 48.2018 263.072 48.2018C259.98 48.2018 257.22 47.4859 254.791 46.0543C252.363 44.6226 250.451 42.5553 249.053 39.8523C247.656 37.1493 246.957 33.908 246.957 30.1284C246.957 26.3373 247.662 23.096 249.07 20.4044C250.479 17.7014 252.398 15.6341 254.826 14.2024C257.254 12.7708 260.003 12.0549 263.072 12.0549C265.031 12.0549 266.852 12.3298 268.535 12.8796C270.219 13.4293 271.72 14.2368 273.037 15.302C274.354 16.3557 275.436 17.6499 276.284 19.1847C277.143 20.708 277.704 22.4489 277.967 24.4074ZM283.804 47.7207V12.536H306.688V17.879H290.178V27.4311H305.503V32.7741H290.178V42.3777H306.826V47.7207H283.804ZM155.864 106.721V71.536H178.748V76.879H162.238V86.4311H177.563V91.7741H162.238V101.378H178.886V106.721H155.864ZM190.577 71.536L198.325 84.421H198.6L206.382 71.536H213.649L202.809 89.1284L213.821 106.721H206.434L198.6 93.9216H198.325L190.491 106.721H183.138L194.253 89.1284L183.275 71.536H190.577ZM218.653 106.721V71.536H231.847C234.55 71.536 236.818 72.0399 238.651 73.0478C240.495 74.0557 241.886 75.4416 242.826 77.2054C243.776 78.9578 244.251 80.9506 244.251 83.1841C244.251 85.4404 243.776 87.4447 242.826 89.1971C241.875 90.9494 240.472 92.3296 238.616 93.3375C236.761 94.3339 234.476 94.8321 231.762 94.8321H223.017V89.5922H230.903C232.483 89.5922 233.777 89.3173 234.785 88.7676C235.793 88.2178 236.538 87.4619 237.019 86.4998C237.511 85.5377 237.757 84.4325 237.757 83.1841C237.757 81.9356 237.511 80.8361 237.019 79.8855C236.538 78.9349 235.787 78.1961 234.768 77.6693C233.76 77.1309 232.46 76.8618 230.868 76.8618H225.027V106.721H218.653ZM249.788 106.721V71.536H256.162V101.378H271.658V106.721H249.788ZM307.259 89.1284C307.259 92.9194 306.549 96.1665 305.129 98.8694C303.72 101.561 301.796 103.623 299.357 105.054C296.928 106.486 294.174 107.202 291.093 107.202C288.012 107.202 285.252 106.486 282.812 105.054C280.384 103.611 278.46 101.544 277.04 98.8523C275.631 96.1493 274.926 92.908 274.926 89.1284C274.926 85.3373 275.631 82.096 277.04 79.4044C278.46 76.7014 280.384 74.6341 282.812 73.2024C285.252 71.7708 288.012 71.0549 291.093 71.0549C294.174 71.0549 296.928 71.7708 299.357 73.2024C301.796 74.6341 303.72 76.7014 305.129 79.4044C306.549 82.096 307.259 85.3373 307.259 89.1284ZM300.851 89.1284C300.851 86.4597 300.433 84.2091 299.597 82.3766C298.772 80.5326 297.627 79.141 296.161 78.2018C294.695 77.2512 293.006 76.7759 291.093 76.7759C289.18 76.7759 287.491 77.2512 286.025 78.2018C284.559 79.141 283.408 80.5326 282.572 82.3766C281.747 84.2091 281.335 86.4597 281.335 89.1284C281.335 91.797 281.747 94.0533 282.572 95.8973C283.408 97.7298 284.559 99.1214 286.025 100.072C287.491 101.011 289.18 101.481 291.093 101.481C293.006 101.481 294.695 101.011 296.161 100.072C297.627 99.1214 298.772 97.7298 299.597 95.8973C300.433 94.0533 300.851 91.797 300.851 89.1284ZM313.285 106.721V71.536H326.48C329.183 71.536 331.45 72.0056 333.283 72.9447C335.127 73.8839 336.518 75.201 337.458 76.8961C338.408 78.5798 338.884 80.544 338.884 82.7889C338.884 85.0452 338.402 87.0038 337.44 88.6645C336.49 90.3138 335.087 91.5908 333.231 92.4956C331.376 93.389 329.097 93.8357 326.394 93.8357H316.996V88.5442H325.535C327.115 88.5442 328.409 88.3266 329.417 87.8914C330.425 87.4447 331.17 86.7976 331.651 85.95C332.143 85.091 332.389 84.0373 332.389 82.7889C332.389 81.5405 332.143 80.4753 331.651 79.5934C331.158 78.7001 330.408 78.0243 329.4 77.5662C328.392 77.0966 327.092 76.8618 325.5 76.8618H319.659V106.721H313.285ZM331.462 90.7776L340.172 106.721H333.059L324.504 90.7776H331.462ZM344.751 106.721V71.536H367.634V76.879H351.124V86.4311H366.449V91.7741H351.124V101.378H367.772V106.721H344.751ZM374.137 106.721V71.536H387.331C390.034 71.536 392.302 72.0056 394.135 72.9447C395.979 73.8839 397.37 75.201 398.309 76.8961C399.26 78.5798 399.735 80.544 399.735 82.7889C399.735 85.0452 399.254 87.0038 398.292 88.6645C397.342 90.3138 395.939 91.5908 394.083 92.4956C392.228 93.389 389.948 93.8357 387.245 93.8357H377.848V88.5442H386.386C387.967 88.5442 389.261 88.3266 390.269 87.8914C391.277 87.4447 392.021 86.7976 392.502 85.95C392.995 85.091 393.241 84.0373 393.241 82.7889C393.241 81.5405 392.995 80.4753 392.502 79.5934C392.01 78.7001 391.26 78.0243 390.252 77.5662C389.244 77.0966 387.944 76.8618 386.352 76.8618H380.511V106.721H374.137ZM392.314 90.7776L401.024 106.721H393.911L385.356 90.7776H392.314Z" fill="#790C63"/>
<line x1="143.323" y1="6.78803" x2="142.113" y2="116.85" stroke="black" stroke-width="3.62843"/>
<path d="M86.6326 85.8989C86.6326 73.4688 81.7865 55.0452 73.8471 39.7241C69.8887 32.0853 65.2441 25.382 60.2016 20.6271C55.1475 15.8614 49.9309 13.2652 44.7506 13.2652C39.5704 13.2652 34.3537 15.8614 29.2997 20.6271C24.2571 25.382 19.6125 32.0853 15.6541 39.7241C7.71476 55.0452 2.86863 73.4688 2.86863 85.8989C2.86863 87.356 2.93563 88.4713 3.04784 89.3031C3.67853 88.7247 4.4794 87.8805 5.46919 86.7314C6.7542 85.2395 8.18674 83.4423 9.79555 81.424C10.1441 80.9867 10.5009 80.5391 10.8663 80.0819C14.9078 75.0252 19.8789 68.9502 25.4595 64.1433C30.9994 59.3714 37.5442 55.4914 44.7506 55.4914C51.9571 55.4914 58.5019 59.3714 64.0417 64.1433C69.6224 68.9502 74.5934 75.0252 78.6349 80.0819C79.0003 80.539 79.3571 80.9866 79.7056 81.4239C81.3144 83.4422 82.747 85.2395 84.0321 86.7314C85.0218 87.8805 85.8227 88.7247 86.4534 89.3031C86.5656 88.4713 86.6326 87.356 86.6326 85.8989ZM1.85677 90.1936C1.85665 90.194 1.86318 90.1919 1.8767 90.186C1.86364 90.1902 1.85688 90.1932 1.85677 90.1936ZM87.6445 90.1936C87.6444 90.1932 87.6376 90.1902 87.6246 90.186C87.6381 90.1919 87.6446 90.194 87.6445 90.1936Z" stroke="#790C63" stroke-width="5.73726"/>
<path d="M132.253 32.2812C132.253 41.3298 124.475 48.7233 114.808 48.7233C105.14 48.7233 97.3629 41.3298 97.3629 32.2812C97.3629 23.2326 105.14 15.8391 114.808 15.8391C124.475 15.8391 132.253 23.2326 132.253 32.2812Z" stroke="#790C63" stroke-width="1.20948"/>
<path d="M127.192 69.3678C127.192 75.5195 121.902 80.5647 115.301 80.5647C108.701 80.5647 103.41 75.5195 103.41 69.3678C103.41 63.216 108.701 58.1708 115.301 58.1708C121.902 58.1708 127.192 63.216 127.192 69.3678Z" stroke="#790C63" stroke-width="1.20948"/>
<path d="M122.071 98.0774C122.071 102.057 118.645 105.34 114.345 105.34C110.045 105.34 106.619 102.057 106.619 98.0774C106.619 94.0983 110.045 90.8144 114.345 90.8144C118.645 90.8144 122.071 94.0983 122.071 98.0774Z" stroke="#790C63" stroke-width="1.20948"/>
<line x1="26.6085" y1="84.7793" x2="65.3117" y2="84.7793" stroke="black" stroke-width="1.20948"/>
<line x1="26.6085" y1="96.8741" x2="65.3117" y2="96.8741" stroke="black" stroke-width="1.20948"/>
<line x1="26.6085" y1="108.969" x2="65.3117" y2="108.969" stroke="black" stroke-width="1.20948"/>
</svg>
